<svg version="1.1" viewBox="0 0 20 20" xmlns="http://www.w3.org/2000/svg">
 <defs>
  <style>.cls-1{fill:#e37400;}</style>
 </defs>
 <title>Not supported</title>
 <g transform="translate(.032604 -.052366)" data-name="Layer 2">
  <path class="cls-1" d="m10 0c-8.9097 0-13.37 10.771-7.0707 17.071s17.071 1.839 17.071-7.0707c0-5.5228-4.4772-10-10-10zm-0.032491-0.009882c-8.9097 0-13.37 10.771-7.0707 17.071s17.071 1.839 17.071-7.0707c0-5.5228-4.4772-10-10-10z" fill="#e37400"/>
 </g>
 <g transform="matrix(.018073 0 0 .018059 1.3238 18.621)" fill="#e37400">
  <path d="m216-144c-30 0-51.667-13.5-65-40.5s-10.667-52.167 8-75.5l201-244v-240h-35.79c-10.14 0-18.71-3.43-25.71-10.29s-10.5-15.36-10.5-25.5 3.45-18.71 10.35-25.71 15.45-10.5 25.65-10.5h312c10.2 0 18.75 3.43 25.65 10.29s10.35 15.36 10.35 25.5-3.45 18.71-10.35 25.71-15.45 10.5-25.65 10.5h-36v240l201.02 243.79c19.32 23.473 22.313 48.71 8.98 75.71s-35.333 40.5-66 40.5zm312-336v-264h-96v264z" fill="#fff"/>
 </g>
</svg>
